<svg xmlns="http://www.w3.org/2000/svg" version="1.1" xmlns:xlink="http://www.w3.org/1999/xlink" xmlns:svgjs="http://svgjs.dev/svgjs" width="1500" height="1518" viewBox="0 0 1500 1518"><g transform="matrix(1,0,0,1,1.325901639344238,0.6145748987853494)"><svg viewBox="0 0 244 247" data-background-color="#ffffff" preserveAspectRatio="xMidYMid meet" height="1518" width="1500" xmlns="http://www.w3.org/2000/svg" xmlns:xlink="http://www.w3.org/1999/xlink"><g id="tight-bounds" transform="matrix(1,0,0,1,-0.21567999999999188,-0.09999999999999432)"><svg viewBox="0 0 244.43135999999998 247.2" height="247.2" width="244.43135999999998"><g><svg></svg></g><g><svg viewBox="0 0 244.43135999999998 247.2" height="247.2" width="244.43135999999998"><g transform="matrix(1,0,0,1,0,49.95943468175389)"><svg viewBox="0 0 244.43135999999998 147.2811306364922" height="147.2811306364922" width="244.43135999999998"><g><svg viewBox="0 0 244.43135999999998 147.2811306364922" height="147.2811306364922" width="244.43135999999998"><g><svg viewBox="0 0 244.43135999999998 147.2811306364922" height="147.2811306364922" width="244.43135999999998"><g id="textblocktransform"><svg viewBox="0 0 244.43135999999998 147.2811306364922" height="147.2811306364922" width="244.43135999999998" id="textblock"><g><svg viewBox="0 0 244.43135999999998 147.2811306364922" height="147.2811306364922" width="244.43135999999998"><g transform="matrix(1,0,0,1,0,0)"><svg width="244.43135999999998" viewBox="3.78 -31.95 53.019999999999996 31.95" height="147.2811306364922" data-palette-color="#000000"><path d="M14.48 0L6.58 0 6.58-3.5 14.33-3.5Q18.57-3.5 20.71-5.81 22.85-8.13 22.85-12.43L22.85-12.43 22.85-19.55Q22.85-23.88 20.71-26.18 18.57-28.48 14.33-28.48L14.33-28.48 6.55-28.48 6.55-31.95 14.48-31.95Q20.68-31.95 23.85-28.76 27.03-25.58 27.03-19.58L27.03-19.58 27.03-12.4Q27.03-6.43 23.85-3.21 20.68 0 14.48 0L14.48 0ZM7.88 0L3.78 0 3.78-31.95 7.88-31.95 7.88 0ZM37.5-31.95L37.5 0 33.35 0 33.35-31.95 37.5-31.95ZM56.8-31.95L56.8 0 52.65 0 52.65-31.95 56.8-31.95ZM35.72-14.73L35.72-18.23 54.3-18.23 54.3-14.73 35.72-14.73Z" opacity="1" transform="matrix(1,0,0,1,0,0)" fill="#000000" class="wordmark-text-0" data-fill-palette-color="primary" id="text-0"></path></svg></g></svg></g></svg></g></svg></g><g></g></svg></g></svg></g><path d="M0 43.959L0 1 244.431 1 244.431 43.959 231.149 43.959 231.149 14.282 13.282 14.282 13.282 43.959 0 43.959M0 203.241L0 246.2 244.431 246.2 244.431 203.241 231.149 203.241 231.149 232.918 13.282 232.918 13.282 203.241 0 203.241" fill="#000000" stroke="transparent" data-fill-palette-color="tertiary"></path></svg></g><defs></defs></svg><rect width="244.43135999999998" height="247.2" fill="none" stroke="none" visibility="hidden"></rect></g></svg></g></svg>